<?xml version="1.0" encoding="iso-8859-1"?>
<!-- Generator: Adobe Illustrator 19.0.0, SVG Export Plug-In . SVG Version: 6.00 Build 0)  -->
<svg version="1.1" id="Layer_1" xmlns="http://www.w3.org/2000/svg" xmlns:xlink="http://www.w3.org/1999/xlink" x="0px" y="0px"
	 viewBox="0 0 495 495" style="enable-background:new 0 0 495 495;" xml:space="preserve">
<g>
	<path style="fill:#FFEB99;" d="M99.188,144.779c-14.256-6.39-29.979-9.923-46.365-9.923H26.6l20.671,75.373h69.867L99.188,144.779z
		"/>
	<path style="fill:#FFDE55;" d="M212.047,210.229l-28.34-103.343c-22.525-10.833-47.39-16.55-73.225-16.55H84.258l14.93,54.443
		l17.949,65.45H212.047z"/>
	<path style="fill:#FFEB99;" d="M247.49,210.229l28.68,46.04h5.003c15.167-49.924,52.592-89.351,99.796-108.047
		c-16.423-30.972-40.115-57.496-69.391-77.472c-35.99-24.558-78.125-37.539-121.852-37.539h-26.223l20.204,73.674l28.34,103.343
		H247.49z"/>
	<path style="fill:#FFDE55;" d="M281.173,256.269h155.18l32.876-119.888h-26.223c-21.748,0-42.711,4.186-62.039,11.842
		C333.765,166.918,296.34,206.344,281.173,256.269z"/>
	<polygon style="fill:#FFA733;" points="276.17,256.269 247.49,210.229 247.49,328.681 468.38,328.681 468.38,256.269 	"/>
	<rect x="26.62" y="210.229" style="fill:#FFB655;" width="220.87" height="118.452"/>
	<rect x="2.03" y="328.681" style="fill:#EE8700;" width="490.939" height="40"/>
	<path style="fill:#3D9AE2;" d="M452.89,414.779c-6.71,4.52-10.41,7.01-19.77,7.01s-13.06-2.49-19.76-7.01
		c-8.67-5.84-20.54-13.83-42.12-13.83c-21.57,0-33.44,7.99-42.11,13.83c-6.71,4.52-10.4,7.01-19.76,7.01s-13.06-2.49-19.77-7.01
		c-8.66-5.84-20.53-13.83-42.11-13.83v40c9.36,0,13.06,2.49,19.76,7c8.67,5.84,20.54,13.84,42.12,13.84c21.57,0,33.44-8,42.11-13.84
		c6.71-4.51,10.4-7,19.76-7s13.06,2.49,19.77,7c8.66,5.84,20.53,13.84,42.11,13.84s33.45-8,42.11-13.84c6.71-4.51,10.41-7,19.77-7
		v-40C473.42,400.949,461.55,408.939,452.89,414.779z"/>
	<path style="fill:#5AAAE7;" d="M205.38,414.779c-6.71,4.52-10.4,7.01-19.76,7.01s-13.05-2.49-19.76-7.01
		c-8.67-5.84-20.54-13.83-42.11-13.83c-21.58,0-33.45,7.99-42.12,13.83c-6.7,4.52-10.4,7.01-19.76,7.01s-13.05-2.49-19.76-7.01
		c-8.67-5.84-20.53-13.83-42.11-13.83v40c9.36,0,13.05,2.49,19.76,7c8.67,5.84,20.53,13.84,42.11,13.84s33.45-8,42.11-13.84
		c6.71-4.51,10.41-7,19.77-7s13.05,2.49,19.76,7c8.66,5.84,20.53,13.84,42.11,13.84s33.44-8,42.11-13.84c6.71-4.51,10.4-7,19.76-7
		v-40C225.92,400.949,214.05,408.939,205.38,414.779z"/>
</g>
<g>
</g>
<g>
</g>
<g>
</g>
<g>
</g>
<g>
</g>
<g>
</g>
<g>
</g>
<g>
</g>
<g>
</g>
<g>
</g>
<g>
</g>
<g>
</g>
<g>
</g>
<g>
</g>
<g>
</g>
</svg>
